<?xml version="1.0" encoding="UTF-8"?><svg xmlns="http://www.w3.org/2000/svg" viewBox="0 0 40.6 33"><g id="a"/><g id="b"><g id="c"><path d="M40.6,3.91c-1.49,.66-3.1,1.11-4.78,1.31,1.72-1.03,3.04-2.66,3.66-4.61-1.61,.95-3.39,1.65-5.29,2.02-1.52-1.62-3.68-2.63-6.08-2.63-4.6,0-8.33,3.73-8.33,8.33,0,.65,.08,1.28,.21,1.9C13.07,9.88,6.94,6.56,2.83,1.52c-.72,1.23-1.13,2.66-1.13,4.19,0,2.89,1.47,5.44,3.71,6.93-1.37-.04-2.65-.42-3.77-1.04v.11c0,4.04,2.87,7.4,6.68,8.17-.7,.19-1.44,.29-2.19,.29-.54,0-1.06-.05-1.57-.15,1.06,3.31,4.14,5.72,7.78,5.78-2.85,2.24-6.44,3.57-10.35,3.57-.67,0-1.34-.04-1.99-.12,3.69,2.37,8.06,3.74,12.77,3.74,15.33,0,23.7-12.69,23.7-23.7,0-.36,0-.72-.03-1.08,1.63-1.18,3.04-2.64,4.15-4.31h0Z" style="fill:#276f2d;"/></g></g></svg>